<svg width="48" height="48" viewBox="0 0 48 48" fill="none" xmlns="http://www.w3.org/2000/svg">
<path d="M14 35C14 32.0945 16.3993 29.7391 19.359 29.7391H27.641C30.6007 29.7391 33 32.0945 33 35H14Z" fill="#DF8B28"/>
<path d="M17.4103 18.9783C17.4103 15.6766 20.1367 13 23.5 13C26.8633 13 29.5897 15.6766 29.5897 18.9783V19.2174H17.4103V18.9783Z" fill="#DF8B28"/>
<path d="M21.3077 32.6087H25.6923V25.913H21.3077V32.6087Z" fill="#DF8B28"/>
<path d="M17.8974 18.634C17.8974 18.704 17.9027 18.7739 17.913 18.8431L18.8171 24.8677C18.8718 25.2318 19.0668 25.5613 19.3619 25.7882L22.3552 28.0897C22.8845 28.4967 23.6283 28.4967 24.1576 28.0897L27.1509 25.7882C27.446 25.5613 27.641 25.2318 27.6957 24.8677L28.5998 18.8431C28.6102 18.7739 28.6154 18.704 28.6154 18.634V17.9895C28.6154 17.2098 27.9811 16.5728 27.1871 16.5551L19.3922 16.3812C18.5722 16.3629 17.8974 17.0104 17.8974 17.8156V18.634Z" fill="#DF8B28"/>
<path d="M28.1282 18.7391C28.1282 18.475 28.3463 18.2609 28.6154 18.2609H32.0256C32.2947 18.2609 32.5128 18.475 32.5128 18.7391C32.5128 19.0033 32.2947 19.2174 32.0256 19.2174H28.6154C28.3463 19.2174 28.1282 19.0033 28.1282 18.7391Z" fill="#DF8B28"/>
</svg>
