<svg width="48" height="48" viewBox="0 0 48 48" fill="none" xmlns="http://www.w3.org/2000/svg">
<path d="M16.3487 34.2683L17.5611 33.5683L15.6711 30.2948C15.2091 29.4945 14.4135 28.2565 13.8386 27.4568L13.861 27.4115C14.3821 27.8381 15.2447 28.5202 15.8634 29.0037L20.1558 32.0703L21.3803 31.3633L16.4803 22.8763L15.2679 23.5763L17.1789 26.8862C17.6129 27.6379 18.4206 28.869 19.0006 29.6496L18.9782 29.6948C18.4781 29.3046 17.7079 28.6985 17.1243 28.2757L12.6733 25.0743L11.4487 25.7813L16.3487 34.2683ZM23.6335 28.5267L22.1355 25.9321L24.8392 24.3711L24.1882 23.2435L21.4845 24.8045L20.0635 22.3433L22.9976 20.6493L22.3326 19.4975L18.1739 21.8985L23.0739 30.3855L27.3538 27.9145L26.6888 26.7627L23.6335 28.5267ZM29.8022 26.501L31.1116 25.745L29.7731 21.5225C29.4929 20.6173 28.9487 19.2826 28.6103 18.5565L28.6588 18.5285C29.1063 19.1916 29.99 20.3303 30.6339 21.0255L33.6214 24.296L34.9308 23.54L31.9343 13.9539L30.6613 14.6889L32.4693 19.8365C32.7172 20.5179 33.1481 21.7402 33.3833 22.3157L33.3348 22.3437C32.9541 21.8522 32.1702 20.9145 31.6099 20.2519L28.1921 16.2923L26.8948 17.0413L28.6151 21.9809C28.9088 22.7975 29.3289 23.9452 29.5642 24.5207L29.5157 24.5487C29.1349 24.0572 28.2918 23.0729 27.8257 22.5175L24.2717 18.3779L22.9987 19.1129L29.8022 26.501Z" fill="#E9E23B"/>
</svg>
