<svg width="48" height="48" viewBox="0 0 48 48" fill="none" xmlns="http://www.w3.org/2000/svg">
<path d="M30.6569 16.1C29.7569 15.3 28.6569 14.8 27.4569 14.5C27.1569 14.4 25.2569 14 23.8569 14H23.6569H23.4569C22.0569 14 20.0569 14.4 19.7569 14.5C18.6569 14.8 17.5569 15.3 16.6569 16.1C14.6569 17.9 14.6569 20.7 15.6569 23C16.6569 25.5 17.7569 27.7 19.2569 29.9C20.4569 31.6 21.7569 34 23.6569 34C25.5569 34 26.8569 31.6 28.1569 29.9C29.6569 27.8 30.7569 25.5 31.7569 23C32.6569 20.7 32.6569 17.9 30.6569 16.1Z" fill="#4E64D7"/>
</svg>
