<svg width="48" height="48" viewBox="0 0 48 48" fill="none" xmlns="http://www.w3.org/2000/svg">
<path d="M37.6505 12.2029L35.7977 10.3501C35.5604 10.1127 35.2341 9.98616 34.8988 10.0012C34.5635 10.0163 34.25 10.1717 34.0349 10.4294L31.7241 13.1982C31.5329 13.4274 31.5481 13.7647 31.7591 13.9757L31.8076 14.0242L24.1359 21.696L10.8959 25.0918C10.0038 25.3206 9.69794 26.4362 10.3496 27.0879L20.9128 37.6511C21.5641 38.3024 22.6799 37.9975 22.9089 37.1047L26.3047 23.8648L33.9764 16.193L34.0249 16.2415C34.236 16.4526 34.5733 16.4678 34.8024 16.2765L37.5712 13.9658C37.8289 13.7507 37.9843 13.4372 37.9994 13.1018C38.0145 12.7665 37.8879 12.4402 37.6505 12.2029ZM19.9456 32.395C19.5932 32.7473 19.0219 32.7473 18.6696 32.395L15.6056 29.331C15.2533 28.9787 15.2533 28.4074 15.6056 28.0551C15.9579 27.7028 16.5293 27.7028 16.8816 28.0551L19.9456 31.119C20.2979 31.4713 20.2979 32.0427 19.9456 32.395ZM22.1861 28.4224C21.4659 29.1425 20.2983 29.1425 19.5782 28.4224C18.858 27.7022 18.858 26.5346 19.5782 25.8144C20.2983 25.0942 21.4659 25.0942 22.1861 25.8144C22.9063 26.5346 22.9063 27.7022 22.1861 28.4224Z" fill="#E94D43"/>
</svg>
