<svg width="48" height="48" viewBox="0 0 48 48" fill="none" xmlns="http://www.w3.org/2000/svg">
<path d="M22.3554 20.9671V19.9809C22.0131 19.9267 21.6673 19.897 21.3207 19.892C17.9654 19.8849 14.9948 22.0592 13.9872 25.2597C12.9796 28.4602 14.1689 31.9441 16.9232 33.8604C14.8601 31.6524 14.2872 28.438 15.4605 25.6532C16.6338 22.8683 19.3342 21.033 22.3554 20.9671Z" fill="#25F4EE"/>
<path d="M22.5413 32.1386C24.4173 32.136 25.9594 30.6581 26.0415 28.7839V12.0589H29.0971C29.0347 11.7095 29.005 11.355 29.0082 11H24.829V27.7088C24.7595 29.5925 23.2138 31.0846 21.3288 31.0877C20.7655 31.0829 20.2114 30.9444 19.7121 30.6835C20.3684 31.5928 21.4199 32.1336 22.5413 32.1386Z" fill="#25F4EE"/>
<path d="M34.8041 17.7336V16.804C33.6796 16.8043 32.58 16.4725 31.6434 15.8501C32.4645 16.8045 33.574 17.4657 34.8041 17.7336Z" fill="#25F4EE"/>
<path d="M31.6434 15.8502C30.7209 14.7996 30.2123 13.4491 30.2126 12.0509H29.0971C29.3883 13.6132 30.3091 14.987 31.6434 15.8502Z" fill="#FE2C55"/>
<path d="M21.3207 24.0712C19.7108 24.0794 18.3132 25.1823 17.9308 26.7462C17.5485 28.31 18.2795 29.9334 19.704 30.6835C18.9322 29.6179 18.8231 28.2095 19.4218 27.0378C20.0204 25.8661 21.2256 25.1291 22.5413 25.1301C22.8922 25.1345 23.2406 25.1889 23.576 25.2918V21.0398C23.2335 20.9885 22.8877 20.9615 22.5413 20.959H22.3554V24.1924C22.0182 24.102 21.6697 24.0612 21.3207 24.0712Z" fill="#FE2C55"/>
<path d="M34.8041 17.7336V20.9671C32.7224 20.963 30.6946 20.3041 29.0082 19.0836V27.5794C28.9993 31.8188 25.5601 35.2508 21.3207 35.2508C19.7463 35.2535 18.2099 34.7678 16.9232 33.8604C19.0704 36.1697 22.412 36.9299 25.3469 35.7766C28.2818 34.6234 30.212 31.7917 30.2127 28.6384V20.1668C31.9048 21.3793 33.935 22.0297 36.0167 22.026V17.863C35.6091 17.8617 35.2028 17.8183 34.8041 17.7336Z" fill="#FE2C55"/>
<path d="M29.0082 27.5795V19.0836C30.6998 20.2971 32.7304 20.9476 34.8122 20.9428V17.7094C33.5823 17.4497 32.4701 16.7972 31.6434 15.8502C30.3091 14.987 29.3883 13.6132 29.0971 12.0509H26.0415V28.7839C25.9804 30.2768 24.9805 31.5671 23.5502 31.9989C22.1198 32.4308 20.5729 31.9093 19.6959 30.6997C18.2715 29.9496 17.5404 28.3262 17.9227 26.7624C18.3051 25.1985 19.7028 24.0956 21.3126 24.0874C21.6636 24.0905 22.0122 24.1449 22.3473 24.249V21.0156C19.3092 21.0671 16.5884 22.9087 15.4118 25.7103C14.2351 28.5118 14.8249 31.7439 16.9152 33.9493C18.2145 34.8268 19.7532 35.2813 21.3207 35.2508C25.5601 35.2508 28.9993 31.8188 29.0082 27.5795Z" fill="#FAFAFA"/>
</svg>
