<svg width="48" height="48" viewBox="0 0 48 48" fill="none" xmlns="http://www.w3.org/2000/svg">
<path d="M15.4772 21.8C15.2926 22.5187 15.1994 23.2579 15.2 24C15.2 24.759 15.2968 25.496 15.4772 26.2H18.61C18.4617 24.7371 18.4617 23.2629 18.61 21.8H15.4772ZM16.377 19.6H18.9576C19.2502 18.2613 19.6726 17.0623 20.1907 16.0646C18.5937 16.834 17.2649 18.0658 16.377 19.6ZM32.5228 21.8H29.39C29.5383 23.2629 29.5383 24.7371 29.39 26.2H32.5228C32.8931 24.7567 32.8931 23.2433 32.5228 21.8ZM31.623 19.6C30.7351 18.0658 29.4063 16.834 27.8093 16.0646C28.3285 17.0623 28.7498 18.2613 29.0424 19.6H31.623ZM20.8232 21.8C20.7408 22.5304 20.6997 23.2649 20.7 24C20.7 24.7535 20.7418 25.4905 20.8232 26.2H27.1768C27.3425 24.738 27.3425 23.262 27.1768 21.8H20.8232ZM21.217 19.6H26.783C26.5828 18.7731 26.294 17.9703 25.9217 17.2053C25.2309 15.8248 24.4917 15.2 24 15.2C23.5072 15.2 22.7691 15.8248 22.0783 17.2053C21.7318 17.9005 21.4403 18.709 21.217 19.6ZM16.377 28.4C17.2649 29.9342 18.5937 31.166 20.1907 31.9354C19.6715 30.9377 19.2502 29.7387 18.9576 28.4H16.377ZM31.623 28.4H29.0424C28.7498 29.7387 28.3274 30.9377 27.8093 31.9354C29.4063 31.166 30.7351 29.9342 31.623 28.4ZM21.217 28.4C21.4403 29.291 21.7318 30.0995 22.0783 30.7947C22.7691 32.1752 23.5083 32.8 24 32.8C24.4928 32.8 25.2309 32.1752 25.9217 30.7947C26.2682 30.0995 26.5597 29.291 26.783 28.4H21.217ZM24 35C17.9247 35 13 30.0753 13 24C13 17.9247 17.9247 13 24 13C30.0753 13 35 17.9247 35 24C35 30.0753 30.0753 35 24 35Z" fill="#13EEAC"/>
</svg>
