<svg width="32" height="32" viewBox="0 0 32 32" fill="none" xmlns="http://www.w3.org/2000/svg">
<path d="M21.6596 20.3064C19.0372 19.3511 18.1989 18.5447 18.1989 16.8181C18.1989 15.7819 19.0582 15.1104 19.351 14.2224C19.644 13.3343 19.8134 12.2829 19.9542 11.5181C20.0951 10.7533 20.151 10.4574 20.2276 9.64255C20.3213 8.62553 19.6404 6 16 6C12.3607 6 11.6776 8.62553 11.7734 9.64255C11.85 10.4574 11.9063 10.7533 12.0468 11.5181C12.1874 12.2829 12.3551 13.3342 12.6479 14.2224C12.9406 15.1105 13.801 15.7819 13.801 16.8181C13.801 18.5447 12.9627 19.3511 10.3404 20.3064C7.70852 21.2638 6 22.208 6 22.875V26H26V22.875C26 22.2091 24.2904 21.2649 21.6596 20.3064Z" fill="#FAFAFA"/>
</svg>
