<svg width="32" height="32" viewBox="0 0 32 32" fill="none" xmlns="http://www.w3.org/2000/svg">
<path d="M23.7778 7.11111V8.22222H21.5556V6H10.4444V8.22222H8.22222V6H6V26H8.22222V23.7778H10.4444V26H21.5556V23.7778H23.7778V26H26V6H23.7778V7.11111ZM8.22222 10.4444H10.4444V12.6667H8.22222V10.4444ZM8.22222 14.8889H10.4444V17.1111H8.22222V14.8889ZM8.22222 21.5556V19.3333H10.4444V21.5556H8.22222ZM21.5556 21.5556V19.3333H23.7778V21.5556H21.5556ZM23.7778 17.1111H21.5556V14.8889H23.7778V17.1111ZM21.5556 12.6667V10.4444H23.7778V12.6667H21.5556Z" fill="#FAFAFA"/>
</svg>
