<svg width="32" height="32" viewBox="0 0 32 32" fill="none" xmlns="http://www.w3.org/2000/svg">
<path d="M18.9823 5.32233L18.8866 5.23656C18.6751 5.06959 18.4097 4.98608 18.1407 5.0019C17.8717 5.01771 17.6179 5.13173 17.4274 5.32233L17.3417 5.41799C17.1748 5.62931 17.0913 5.89455 17.1071 6.16336C17.1229 6.43216 17.2369 6.68579 17.4274 6.87608L18.8558 8.30227H12.7002L12.4363 8.30667C10.4428 8.37452 8.55348 9.21394 7.16692 10.6479C5.78035 12.0819 5.00487 13.9983 5.00403 15.993C5.00403 17.5819 5.48566 19.0587 6.31147 20.2803C6.48105 20.5174 6.73788 20.6775 7.02545 20.7252C7.31302 20.7729 7.60777 20.7045 7.84487 20.5349C8.08197 20.3653 8.24199 20.1085 8.28973 19.8209C8.33747 19.5333 8.26902 19.2386 8.09943 19.0015L7.95099 18.7618C7.46427 17.9266 7.2065 16.9778 7.20369 16.0111C7.20088 15.0445 7.45313 14.0942 7.93499 13.2562C8.41684 12.4182 9.11125 11.7221 9.9481 11.2383C10.785 10.7544 11.7346 10.4999 12.7013 10.5004H18.8536L17.4274 11.9266L17.3417 12.0223C17.1631 12.2418 17.0762 12.5218 17.099 12.8039C17.1218 13.086 17.2527 13.3484 17.4642 13.5364C17.6757 13.7244 17.9517 13.8235 18.2345 13.8131C18.5173 13.8026 18.7852 13.6834 18.9823 13.4803L22.2877 10.1782L22.3724 10.0825C22.5393 9.87123 22.6227 9.60598 22.6069 9.33718C22.5911 9.06838 22.4771 8.81475 22.2866 8.62446L18.9823 5.32233ZM25.6624 11.6682C25.5216 11.4875 25.3278 11.3553 25.1081 11.2902C24.8885 11.2251 24.654 11.2303 24.4374 11.305C24.2208 11.3798 24.0331 11.5204 23.9004 11.7072C23.7677 11.894 23.6967 12.1175 23.6974 12.3466C23.6974 12.5765 23.7678 12.7887 23.8865 12.9635C24.4333 13.7917 24.7455 14.7526 24.7901 15.744C24.8347 16.7354 24.6099 17.7204 24.1397 18.5943C23.6694 19.4683 22.9713 20.1985 22.1194 20.7076C21.2675 21.2166 20.2936 21.4855 19.3012 21.4855H13.1565L14.5794 20.067L14.6707 19.9614C14.8205 19.7675 14.9011 19.5291 14.9 19.2841C14.8988 19.039 14.8157 18.8014 14.6641 18.6089L14.5794 18.5122L14.475 18.4198C14.2808 18.2697 14.0419 18.1888 13.7965 18.19C13.551 18.1912 13.313 18.2744 13.1203 18.4264L13.0235 18.5122L9.71916 21.8143L9.62789 21.9188C9.47787 22.1128 9.39702 22.3514 9.39822 22.5967C9.39942 22.842 9.48258 23.0798 9.63449 23.2724L9.71916 23.368L13.0235 26.6702L13.128 26.7625C13.3403 26.9265 13.6052 27.0072 13.8728 26.9895C14.1405 26.9718 14.3925 26.8568 14.5813 26.6662C14.7701 26.4757 14.8827 26.2227 14.898 25.9548C14.9132 25.687 14.83 25.4229 14.6641 25.2121L14.5794 25.1164L13.1455 23.6836H19.299L19.5629 23.6803C20.9382 23.6331 22.2757 23.2178 23.4359 22.4778C24.5962 21.7379 25.5367 20.7002 26.1596 19.4731C26.7824 18.246 27.0647 16.8743 26.9771 15.5009C26.8894 14.1276 26.4351 12.8029 25.6613 11.6649V11.6682H25.6624Z" fill="#FAFAFA"/>
</svg>
