<svg width="32" height="32" viewBox="0 0 32 32" fill="none" xmlns="http://www.w3.org/2000/svg">
<path d="M26.7279 14.3281L24.2688 13.5947C24.0988 13.0017 23.865 12.4288 23.5715 11.8861L24.7753 9.63476C24.8205 9.54978 24.837 9.45251 24.8225 9.3574C24.8079 9.26228 24.7631 9.17439 24.6946 9.10676L22.9402 7.34677C22.8725 7.27832 22.7845 7.23351 22.6893 7.21898C22.5941 7.20445 22.4967 7.22097 22.4117 7.2661L20.1728 8.46143C19.6242 8.15391 19.0432 7.90797 18.4405 7.7281L17.7064 5.30078C17.6754 5.21132 17.6167 5.13402 17.5389 5.07999C17.4611 5.02596 17.3681 4.99799 17.2733 5.00011H14.7922C14.6969 5.00056 14.6042 5.03138 14.5276 5.08809C14.4511 5.14481 14.3946 5.22445 14.3665 5.31544L13.6324 7.73543C13.0247 7.91435 12.4387 8.16031 11.8854 8.46876L9.68324 7.28077C9.59818 7.23564 9.50082 7.21912 9.40561 7.23365C9.3104 7.24818 9.22242 7.29299 9.15473 7.36143L7.37098 9.09942C7.30247 9.16705 7.25762 9.25495 7.24307 9.35006C7.22853 9.44518 7.24507 9.54244 7.29024 9.62742L8.4794 11.8274C8.17114 12.3778 7.92495 12.9607 7.74535 13.5654L5.31564 14.2987C5.22456 14.3268 5.14484 14.3832 5.08807 14.4597C5.0313 14.5362 5.00044 14.6288 5 14.7241V17.2027C5.00044 17.2979 5.0313 17.3905 5.08807 17.467C5.14484 17.5435 5.22456 17.5999 5.31564 17.628L7.76003 18.3614C7.94159 18.956 8.18774 19.5289 8.49408 20.07L7.29024 22.3727C7.24507 22.4577 7.22853 22.5549 7.24307 22.65C7.25762 22.7452 7.30247 22.8331 7.37098 22.9007L9.12536 24.6533C9.19306 24.7218 9.28104 24.7666 9.37625 24.7811C9.47146 24.7957 9.56882 24.7791 9.65388 24.734L11.9221 23.524C12.4587 23.8133 13.0247 24.0444 13.6104 24.2133L14.3445 26.6847C14.3726 26.7757 14.4291 26.8553 14.5056 26.912C14.5822 26.9687 14.6749 26.9996 14.7702 27H17.2513C17.3466 26.9996 17.4393 26.9687 17.5159 26.912C17.5925 26.8553 17.6489 26.7757 17.6771 26.6847L18.4111 24.206C18.9919 24.0361 19.5529 23.8051 20.0847 23.5167L22.3676 24.734C22.4527 24.7791 22.5501 24.7957 22.6453 24.7811C22.7405 24.7666 22.8285 24.7218 22.8962 24.6533L24.6505 22.9007C24.719 22.8331 24.7639 22.7452 24.7784 22.65C24.793 22.5549 24.7765 22.4577 24.7313 22.3727L23.5128 20.0994C23.8044 19.566 24.0382 19.003 24.2101 18.42L26.6839 17.6867C26.7749 17.6586 26.8547 17.6022 26.9114 17.5257C26.9682 17.4492 26.9991 17.3566 26.9995 17.2614V14.7607C27.0038 14.6695 26.9801 14.5792 26.9316 14.5019C26.883 14.4245 26.812 14.3639 26.7279 14.3281ZM16.0328 20.0334C15.2343 20.0334 14.4537 19.7968 13.7898 19.3536C13.1259 18.9104 12.6084 18.2805 12.3028 17.5435C11.9973 16.8065 11.9173 15.9956 12.0731 15.2132C12.2289 14.4308 12.6134 13.7121 13.178 13.1481C13.7426 12.584 14.462 12.1999 15.2451 12.0442C16.0283 11.8886 16.8401 11.9685 17.5778 12.2738C18.3155 12.579 18.946 13.096 19.3897 13.7593C19.8333 14.4225 20.0701 15.2023 20.0701 16.0001C20.0701 17.0698 19.6447 18.0956 18.8876 18.852C18.1304 19.6084 17.1035 20.0334 16.0328 20.0334Z" fill="#FAFAFA"/>
</svg>
