<svg width="32" height="32" viewBox="0 0 32 32" fill="none" xmlns="http://www.w3.org/2000/svg">
<path d="M22.4 11.5359V19.6287C21.7899 19.2765 21.0807 19.1354 20.3823 19.2274C19.6839 19.3193 19.0353 19.6391 18.5372 20.1373C18.0391 20.6354 17.7193 21.2839 17.6274 21.9823C17.5354 22.6807 17.6765 23.39 18.0287 24C18.381 24.6101 18.9246 25.0869 19.5755 25.3564C20.2263 25.626 20.9479 25.6733 21.6283 25.4909C22.3087 25.3086 22.91 24.9068 23.3388 24.348C23.7676 23.7891 24 23.1043 24 22.3999V6.2815C24.0002 6.07612 23.9511 5.8737 23.8566 5.69133C23.7621 5.50896 23.6252 5.35199 23.4573 5.23369C23.2894 5.11538 23.0955 5.03921 22.892 5.01161C22.6885 4.98401 22.4813 5.00579 22.288 5.0751L12.048 8.7327C11.7998 8.82171 11.5851 8.98521 11.4333 9.20087C11.2815 9.41652 11.2 9.67379 11.2 9.9375V21.2271C10.59 20.8749 9.88085 20.7338 9.1825 20.8257C8.48416 20.9176 7.83564 21.2374 7.33752 21.7354C6.8394 22.2334 6.51951 22.8818 6.42745 23.5801C6.33539 24.2785 6.4763 24.9876 6.82834 25.5977C7.18038 26.2078 7.72387 26.6847 8.37453 26.9544C9.0252 27.2242 9.74669 27.2717 10.4271 27.0896C11.1075 26.9076 11.7089 26.5061 12.1379 25.9475C12.5669 25.3888 12.7997 24.7043 12.8 23.9999V14.9647L22.4 11.5375V11.5359Z" fill="#FAFAFA"/>
</svg>
