<svg width="32" height="32" viewBox="0 0 32 32" fill="none" xmlns="http://www.w3.org/2000/svg">
<path d="M15.9999 6C10.4772 6 6 10.4772 6 16.0001C6 21.5231 10.4772 26 15.9999 26C21.5232 26 26 21.5231 26 16.0001C26 10.4776 21.5232 6.00048 15.9998 6.00048L15.9999 6ZM20.5858 20.423C20.4067 20.7167 20.0222 20.8099 19.7285 20.6295C17.3806 19.1954 14.4249 18.8706 10.944 19.6659C10.6086 19.7423 10.2742 19.5321 10.1978 19.1966C10.121 18.861 10.3304 18.5266 10.6666 18.4502C14.4759 17.5796 17.7434 17.9546 20.3793 19.5656C20.673 19.7459 20.7662 20.1292 20.5858 20.423ZM21.8098 17.6997C21.5841 18.0669 21.1041 18.1827 20.7375 17.957C18.0495 16.3044 13.9521 15.826 10.7728 16.7911C10.3605 16.9156 9.92496 16.6832 9.79982 16.2716C9.67563 15.8593 9.90812 15.4246 10.3197 15.2992C13.9514 14.1973 18.4663 14.731 21.5531 16.6279C21.9197 16.8536 22.0355 17.3337 21.8098 17.6998V17.6997ZM21.9149 14.8643C18.692 12.95 13.3745 12.7739 10.2974 13.7079C9.80328 13.8578 9.28073 13.5788 9.13099 13.0847C8.98125 12.5903 9.25995 12.0681 9.75444 11.9179C13.2868 10.8455 19.1589 11.0527 22.8695 13.2555C23.3149 13.5193 23.4606 14.0934 23.1967 14.5372C22.934 14.9817 22.3584 15.1282 21.9154 14.8643H21.9149Z" fill="#FAFAFA"/>
</svg>
